<svg xmlns="http://www.w3.org/2000/svg" viewBox="0 0 115 115"><defs><style>.a{fill:#fff;}.b{fill:#0078d7;}.c{fill:#1a1918;}</style></defs><title>AMP_Ansible_115x</title><path class="a" d="M115 115h-115v-115h115z"/><path class="b" d="M0 0v115h115v-115zm113 71.919l-40.081 41.081h-70.919v-111h111z"/><path class="a" d="M103.821 104.151a1.425 1.425 0 0 1-2.731.569h-8.385a3.7 3.7 0 1 1 0-7.4h.333l-.006.015.006-.015a4.562 4.562 0 0 1 8.1-.7 5.654 5.654 0 0 0-1.12.379 3.42 3.42 0 0 0-5.709.322l-.151.294a3.381 3.381 0 0 0-.259.845h-1.194a2.562 2.562 0 1 0 0 5.123h8.385a1.425 1.425 0 0 1 2.731.569zm3.171-4.258a5.132 5.132 0 0 0-9.6 1.157 3.989 3.989 0 0 0-2.88 1.678h6.108a2.277 2.277 0 1 1 0 2.846h-6.794a3.989 3.989 0 0 0 3.95 3.426h9.18a4.554 4.554 0 0 0 .036-9.107z"/><path class="c" d="M92.984 57.5a35.484 35.484 0 1 1-35.484-35.484 35.483 35.483 0 0 1 35.484 35.484"/><path class="a" d="M58.1 43.693l9.18 22.663-13.87-10.925zm16.31 27.884l-14.125-33.992a2.28 2.28 0 0 0-2.188-1.5 2.356 2.356 0 0 0-2.248 1.5l-15.503 37.285h5.3l6.14-15.37 18.314 14.792a2.976 2.976 0 0 0 1.959.865 2.532 2.532 0 0 0 2.593-2.534 3.356 3.356 0 0 0-.242-1.046z"/></svg>