<svg xmlns="http://www.w3.org/2000/svg" viewBox="0 0 255 115"><defs><style>.a{fill:#fff;}.b{fill:#0078d7;}.c{fill:#1a1918;}</style></defs><title>AMP_Ansible_255x115</title><path class="a" d="M255 115h-255v-115h255z"/><path class="b" d="M0 0v115h255v-115zm253 53l-60 60h-191v-111h251z"/><path class="a" d="M240.862 99.12a1.785 1.785 0 0 1-3.42.713h-10.5a4.634 4.634 0 1 1 0-9.268h.417l-.007.019.007-.019a5.713 5.713 0 0 1 10.139-.879 7.081 7.081 0 0 0-1.4.475 4.283 4.283 0 0 0-7.151.4l-.19.369a4.235 4.235 0 0 0-.325 1.058h-1.492a3.208 3.208 0 1 0 0 6.417h10.5a1.785 1.785 0 0 1 3.42.713zm3.972-5.333a6.428 6.428 0 0 0-12.026 1.449 5 5 0 0 0-3.608 2.1h7.65a2.852 2.852 0 1 1 0 3.565h-8.506a5 5 0 0 0 4.948 4.291h11.5a5.7 5.7 0 0 0 .045-11.406z"/><path class="c" d="M167.5 57.5a40 40 0 1 1-40-40 40 40 0 0 1 40 40"/><path class="a" d="M128.173 41.935l10.351 25.548-15.635-12.316zm18.389 31.433l-15.922-38.318a2.57 2.57 0 0 0-2.466-1.69 2.655 2.655 0 0 0-2.535 1.69l-17.476 42.03h5.978l6.918-17.329 20.641 16.679a3.355 3.355 0 0 0 2.208.975 2.855 2.855 0 0 0 2.923-2.857 3.783 3.783 0 0 0-.273-1.179z"/></svg>