<svg xmlns="http://www.w3.org/2000/svg" viewBox="0 0 255 115"><defs><style>.a{fill:#fff;}.b{fill:#0078d7;}.c{fill:#cb3349;}.d{fill:#f4edae;}.e{fill:#e6ccad;}.f{fill:#656c67;}.g{fill:#e5caa3;}.h{fill:#c7b39a;}.i,.m{fill:#ebd599;}.j{fill:#2d3136;}.k{fill:#edf6fa;}.l{opacity:0.8;}.m{opacity:0.75;isolation:isolate;}</style></defs><title>AMP_Travis_255x115</title><path class="a" d="M255 115h-255v-115h255z"/><path class="b" d="M0 0v115h255v-115zm253 53l-60 60h-191v-111h251z"/><path class="a" d="M240.862 99.12a1.785 1.785 0 0 1-3.42.713h-10.5a4.634 4.634 0 1 1 0-9.268h.417l-.007.019.007-.019a5.713 5.713 0 0 1 10.139-.879 7.081 7.081 0 0 0-1.4.475 4.283 4.283 0 0 0-7.151.4l-.19.369a4.235 4.235 0 0 0-.325 1.058h-1.492a3.208 3.208 0 1 0 0 6.417h10.5a1.785 1.785 0 0 1 3.42.713zm3.972-5.333a6.428 6.428 0 0 0-12.026 1.449 5 5 0 0 0-3.608 2.1h7.65a2.852 2.852 0 1 1 0 3.565h-8.506a5 5 0 0 0 4.948 4.291h11.5a5.7 5.7 0 0 0 .045-11.406z"/><path class="c" d="M108.971 49.187s-11.042 7.772-11.471 10.733l.829-.17s13.223-8.764 23.7-9.833l.237-1.33z"/><path class="c" d="M126.3 48.076l-8.7 6.169.47.377c.354-.286 15.449-4.9 15.449-4.9l3.183-2c-2.129.278-10.402.354-10.402.354z"/><path class="c" d="M133.863 55.537c6.176 0 15.434-6.049 15.434-6.049l-2.993-.57c-.148.148-4.826-.164-4.826-.164l-2.221-.617-5.305 6.045-.432 1.049c.38-.153.343.306.343.306z"/><path class="c" d="M154.017 74.828l-1.908.537-8.815-.191-5.515-4.288-6.665 1.668-7.709-.667-4.318 4.713-8.1 2.42-4.044-1.254-.2-.175 1.815 4.445s4.112 4.409 6.409 4.927 6.446-.037 9.558-.519 5.594-1.593 6.594-3.408a15.2 15.2 0 0 0 1.148-2.334s2.964 4.186 5.52 4.668l10.15-2.112s4.631-1.259 5.445-2.852l2.964-6.816zm-46.226 3.621l-.128-.059-.714-.616z"/><path class="d" d="M161.505 43.337c-.019-.238-.045-.476-.075-.713l-.076-.505a14.542 14.542 0 0 0-2.112-1.445 28.113 28.113 0 0 0-2.54-1.3c-.865-.408-1.754-.777-2.647-1.138q-.669-.271-1.348-.524c-.45-.176-.9-.339-1.361-.505.957.159 1.9.376 2.844.618.611.158 1.22.335 1.824.524-4.3-11.232-14.573-18.547-25.792-18.547s-21.5 7.315-25.792 18.547c.6-.189 1.212-.366 1.823-.524.941-.242 1.889-.459 2.845-.618-.457.166-.911.33-1.363.505s-.9.343-1.348.524c-.894.361-1.78.73-2.647 1.138a28.331 28.331 0 0 0-2.539 1.3 14.668 14.668 0 0 0-2.114 1.445l-.075.505-.075.713c-.042.479-.059.959-.063 1.441a21.012 21.012 0 0 0 .177 2.878 20.768 20.768 0 0 0 .566 2.821c.128.46.273.913.44 1.351.084.219.176.435.271.644l.147.307.061.116.215.106.427.2.84.387.044-.04-.793-3.021c.168-.046 1.674-.435 4.269-.929l-.629-.135a12.9 12.9 0 0 1-1.738-.555 7.954 7.954 0 0 1-.819-.4 2.809 2.809 0 0 1-.723-.549c2.851.93 8.743.509 13.98-.032a143.33 143.33 0 0 1 14.417-.823 143.288 143.288 0 0 1 14.417.823c5.24.541 11.131.963 13.982.032a2.791 2.791 0 0 1-.722.549 7.984 7.984 0 0 1-.819.4 12.928 12.928 0 0 1-1.738.555l-.264.059c2.846.528 4.5.957 4.68 1l-.759 2.878.458-.2.427-.2.215-.106.059-.116.149-.307c.1-.21.187-.425.271-.644.168-.439.313-.892.44-1.351a20.767 20.767 0 0 0 .566-2.821 21.076 21.076 0 0 0 .178-2.878c-.001-.477-.019-.962-.061-1.44z"/><path class="e" d="M133.457 83.283c-.378.057-.755.1-1.131.133-.242.012-.5.036-.731.036h-.086c.292-.652.513-1.157.681-1.54.342.388.777.86 1.267 1.371z"/><path class="e" d="M134.278 84.119a6.613 6.613 0 0 0 4.224 1.944 23.315 23.315 0 0 1-7.167 1.643 17.654 17.654 0 0 1-5.846-.628l.423-.067c.159-.019 3.621-.471 5.182-2.792h.53c.259 0 .495-.021.743-.031a15.5 15.5 0 0 0 1.731-.249z"/><path class="f" d="M137.6 49.364l-.372.477a30.9 30.9 0 0 1-2.766 3.061q-1.967-.061-4.047-.063c-2.292 0-4.49.061-6.578.162a52.376 52.376 0 0 1 10.329-3.137c1.122-.213 2.269-.382 3.434-.5z"/><path class="f" d="M120.34 50.684a26.274 26.274 0 0 0-3.394 2.828c-2.953.3-5.528.654-7.653 1a58.031 58.031 0 0 1 11.047-3.828z"/><path class="f" d="M156.412 56.779l-1.2 8.4-5.753 4.029-15-1.706-2.259-7.435a.491.491 0 0 0-.393-.345 7.919 7.919 0 0 0-2.918 0 .5.5 0 0 0-.392.345l-2.2 7.256-14.92 3.32-5.919-4.143-1.165-9.429.772-.429q.549-.118 1.233-.25l1.1 8.9a.493.493 0 0 0 .208.343l4.067 2.85a.5.5 0 0 0 .391.076l12.267-2.729a.522.522 0 0 0 .122-.044.493.493 0 0 0 .242-.293l2.205-7.275a11.944 11.944 0 0 1 6.886 0l2.214 7.274a.494.494 0 0 0 .417.347l12.267 1.393a.5.5 0 0 0 .338-.086l4.07-2.848a.5.5 0 0 0 .2-.336l1.087-7.6c.816.157 1.498.3 2.033.415z"/><path class="f" d="M157.928 51.51l-1.056 4.006a115.6 115.6 0 0 0-13.361-2.039 32.574 32.574 0 0 0 6.221-3.438c3.842.542 6.668 1.124 8.196 1.471z"/><path class="g" d="M114.669 64.044c.836-.452 1.782-.385 3.261-.383h.493l.446-.008c1.524-.015 2.792.13 2.77-2.264s-1.087-4.328-2.609-4.313-3 1.974-2.909 4.367a3.8 3.8 0 0 0 .263 1.4 2.4 2.4 0 0 0-1.715 1.201zm18.331-9.844a16.547 16.547 0 0 1-1.863 1.317l-2.163 1.306a18.475 18.475 0 0 0-2.6.521.431.431 0 0 0-.112.05.5.5 0 0 0-.223.282l-2.2 7.26-11.775 2.619-3.709-2.6-1.079-8.741c2.106-.387 4.923-.835 8.307-1.214-.363.435-.715.89-1.049 1.368l-2.014 2.892 2.933-1.956a48.131 48.131 0 0 1 4.967-2.754c3.045-.229 6.406-.376 10-.376.873-.002 1.733.008 2.58.026z"/><path class="g" d="M145.893 63.062c-.015-.057-.335-1.019-1.754-.851a3.008 3.008 0 0 0 .185-1.494c-.187-2.388-1.577-4.286-3.1-4.234s-2.5 2.034-2.415 4.428 1.363 2.375 2.886 2.322c2.048-.033 3.173-.667 4.198-.171zm7.515-6.879l-1.062 7.432-3.74 2.618-11.758-1.333-2.194-7.226a.5.5 0 0 0-.335-.331 18.1 18.1 0 0 0-3.073-.57l.282-.019a46.639 46.639 0 0 0 9.143-2.185 125.31 125.31 0 0 1 12.738 1.615z"/><path class="h" d="M114.669 64.044c.836-.452 1.782-.385 3.261-.383h.493l.446-.008c1.524-.015 2.792.13 2.77-2.264s-1.087-4.328-2.609-4.313-3 1.974-2.909 4.367a3.8 3.8 0 0 0 .263 1.4 2.4 2.4 0 0 0-1.715 1.201zm18.331-9.844a16.547 16.547 0 0 1-1.863 1.317l-2.163 1.306a18.475 18.475 0 0 0-2.6.521.431.431 0 0 0-.112.05.5.5 0 0 0-.223.282l-2.2 7.26-11.775 2.619-3.709-2.6-1.079-8.741c2.106-.387 4.923-.835 8.307-1.214-.363.435-.715.89-1.049 1.368l-2.014 2.892 2.933-1.956a48.131 48.131 0 0 1 4.967-2.754c3.045-.229 6.406-.376 10-.376.873-.002 1.733.008 2.58.026z"/><path class="h" d="M145.893 63.062c-.015-.057-.335-1.019-1.754-.851a3.008 3.008 0 0 0 .185-1.494c-.187-2.388-1.577-4.286-3.1-4.234s-2.5 2.034-2.415 4.428 1.363 2.375 2.886 2.322c2.048-.033 3.173-.667 4.198-.171zm7.515-6.879l-1.062 7.432-3.74 2.618-11.758-1.333-2.194-7.226a.5.5 0 0 0-.335-.331 18.1 18.1 0 0 0-3.073-.57l.282-.019a46.639 46.639 0 0 0 9.143-2.185 125.31 125.31 0 0 1 12.738 1.615z"/><path class="e" d="M158.542 59.452c.18.149.323.534.162 2.327-.2 2.2-1.121 6.05-1.693 6.671a8.654 8.654 0 0 1-2.76-.211c.139-.553.179-.818.292-1.384l1.41-.987a.494.494 0 0 0 .206-.334l.986-6.907a13.487 13.487 0 0 1 1.397.825z"/><path class="e" d="M106.542 68.467l.221.745a9.086 9.086 0 0 1-3 .314c-.579-.584-1.66-4.6-1.9-6.734-.193-1.728-.057-2.1.118-2.248a15.393 15.393 0 0 1 1.63-.961l.894 7.256a.484.484 0 0 0 .208.343z"/><path class="e" d="M135.075 68.569l-.054.463a8.27 8.27 0 0 1-4.242 1.845 6.877 6.877 0 0 1-4.674-1.271 2.807 2.807 0 0 0 .8 1.45 18.872 18.872 0 0 0-2.24-.139c-.285 0-.573.008-.852.022-1.611.084-3.876 2.519-5.469 4.973-.782.247-3.225 1.023-6.054 1.858a32.163 32.163 0 0 1-4.07-7.782l-.156-.45.679.475 1.677 1.174.561.391a.488.488 0 0 0 .282.09.557.557 0 0 0 .108-.011l15.412-3.431a.491.491 0 0 0 .364-.337l2.2-7.235a6.427 6.427 0 0 1 2 0l2.262 7.451a.491.491 0 0 0 .416.347z"/><path class="e" d="M152.667 68.169l.5-.349c-.082.345-.172.688-.265 1.028a35.539 35.539 0 0 1-2.415 5.91c-.2.014-.412.022-.639.022-.7 0-1.414-.059-2.205-.132-1.373-.126-3.551-.375-4.239-.455-.593-.473-2.62-2.084-4.308-3.412l-.179-.149a1.824 1.824 0 0 0-1.319-.537 15.613 15.613 0 0 0-3.722.89 2.664 2.664 0 0 0 1.147-1.952l.054-.463 14.459 1.643a.5.5 0 0 0 .339-.086l1.453-1.018z"/><path class="i" d="M142.026 37.749a20.412 20.412 0 0 1-.587 5.8.474.474 0 0 0 0 .25c-.762-.08-1.525-.149-2.287-.21a12.484 12.484 0 0 0 1.083-4.376 20.21 20.21 0 0 0 1.791-1.464z"/><path class="i" d="M120.21 39.212a12.456 12.456 0 0 0 1.081 4.371q-1.144.091-2.286.211a.471.471 0 0 0 0-.246 20.5 20.5 0 0 1-.587-5.8 19.735 19.735 0 0 0 1.792 1.464z"/><path class="j" d="M145.893 63.062c-1.025-.5-2.15.134-4.2.172-1.523.054-2.8.07-2.886-2.322s.892-4.374 2.415-4.428 2.912 1.845 3.1 4.234a3.008 3.008 0 0 1-.185 1.494c1.421-.169 1.741.793 1.756.85zm-4.786-3.505a.779.779 0 1 0-.792-.764.782.782 0 0 0 .792.764z"/><circle class="k" cx="141.092" cy="58.776" r=".778" transform="translate(-1.052 2.592) rotate(-1.049)"/><path class="j" d="M121.64 61.387c.022 2.394-1.245 2.249-2.77 2.264l-.446.008h-.493a6.82 6.82 0 0 0-3.261.383 2.406 2.406 0 0 1 1.716-1.206 3.791 3.791 0 0 1-.263-1.4c-.091-2.392 1.384-4.354 2.909-4.367s2.584 1.924 2.608 4.318zm-2.354-1.252a.779.779 0 1 0-.8-.759.779.779 0 0 0 .8.758z"/><circle class="k" cx="119.265" cy="59.357" r=".779" transform="translate(-1.486 3.085) rotate(-1.473)"/><g class="l"><path class="i" d="M110 45.136a21.3 21.3 0 0 1 .72-4.266c.249-.609 1.773-1 2.937-1.274s3.019-.831 3.379.8a9.62 9.62 0 0 0 1.329 3.352l-.5-6.731-8.006 1.939-.527 5.956.249.471.416-.249"/><path class="i" d="M150.513 45.136a21.286 21.286 0 0 0-.72-4.266c-.249-.609-1.773-1-2.936-1.274s-3.02-.831-3.38.8a9.6 9.6 0 0 1-1.33 3.352l.5-6.731 8.006 1.939.526 5.956-.249.471-.416-.249"/></g><path class="m" d="M139.2 24.989s-.212 16.142-3.983 16.142h-9.8c-3.771 0-4.075-16.135-4.075-16.135l-1.852 5.478.03 7.517 1.315 1.046.6 3.228.836 1.883 16.139.03.747-1.345.628-2.271.09-1.435 1.782-5.089z"/><path class="m" d="M151.072 40.04s.776 5.568 2.829 6.572l-2.875-.867z"/><path class="m" d="M109.371 40.04s-.776 5.568-2.83 6.572l2.876-.867z"/><path class="j" d="M151.625 45.719a14.569 14.569 0 0 1 2.851 1.18 11.264 11.264 0 0 0-1.464-.446c-.494-.126-.991-.232-1.491-.328-1-.188-2-.348-3.015-.471s-2.018-.242-3.032-.328-2.026-.171-3.042-.231c-4.061-.25-8.134-.312-12.21-.317s-8.148.078-12.21.318c-1.016.059-2.028.145-3.042.231s-2.026.194-3.032.328-2.015.282-3.015.471q-.749.141-1.492.326a11.366 11.366 0 0 0-1.464.446 14.6 14.6 0 0 1 2.853-1.182l.249-.076-.015-.063a23.824 23.824 0 0 1 .252-6.616.474.474 0 0 1 .341-.381l1.035-.295c.225-8.028 3.531-11.8 3.635-11.92a22.06 22.06 0 0 0-2.876 11.7l6.433-1.828h.015a.574.574 0 0 1 .08-.011h.027a.422.422 0 0 1 .105.01.13.13 0 0 1 .019.006.445.445 0 0 1 .079.027l.031.017a.683.683 0 0 1 .063.04.075.075 0 0 1 .017.012l.011.011.019.016.448.429c-.065-2.119.036-8.2 2.932-13.239a37.192 37.192 0 0 0-1.567 14.422c.257.206.527.408.791.585a.478.478 0 0 1 .208.387 11.579 11.579 0 0 0 1.117 4.466.655.655 0 0 1 .036.1c2.636-.179 5.279-.252 7.917-.253s5.28.078 7.915.259a.494.494 0 0 1 .039-.1 11.519 11.519 0 0 0 1.115-4.466.484.484 0 0 1 .21-.387c.263-.177.53-.379.789-.585a37.191 37.191 0 0 0-1.565-14.422c2.893 5.039 3 11.119 2.932 13.239l.447-.429.019-.016.012-.011a.1.1 0 0 1 .017-.012l.063-.042a.173.173 0 0 0 .029-.015.647.647 0 0 1 .084-.028h.017a.405.405 0 0 1 .105-.01h.025a.591.591 0 0 1 .082.011h.015l6.428 1.822a22.053 22.053 0 0 0-2.876-11.7c.1.116 3.41 3.892 3.632 11.92l1.037.295a.478.478 0 0 1 .341.381 23.9 23.9 0 0 1 .251 6.616.555.555 0 0 1-.015.065l.255.072zm-1.17-.343a23.669 23.669 0 0 0-.21-5.962l-7.281-2.07a21.521 21.521 0 0 1-.606 6.458.575.575 0 0 1-.036.092l.215.023a60.671 60.671 0 0 1 6.1 1c.607.145 1.215.296 1.818.459zm-9.016-1.828a20.411 20.411 0 0 0 .587-5.8 20.148 20.148 0 0 1-1.792 1.464 12.484 12.484 0 0 1-1.083 4.376c.763.061 1.525.13 2.287.21a.472.472 0 0 1 .001-.25zm-20.148.035a12.457 12.457 0 0 1-1.081-4.371 19.845 19.845 0 0 1-1.792-1.464 20.481 20.481 0 0 0 .587 5.8.471.471 0 0 1 0 .246q1.142-.12 2.286-.211zm-3.17.307a.586.586 0 0 1-.035-.088 21.581 21.581 0 0 1-.607-6.458l-7.279 2.07a23.733 23.733 0 0 0-.212 5.96q.906-.246 1.821-.456c1.006-.223 2.02-.409 3.036-.581s2.039-.3 3.061-.423l.215-.024z"/><path class="j" d="M137.894 25.2v6.041h-4.282v-1.765h-.965v8.155h1.458v4.56h-7.49v-4.56h1.452v-8.154h-.967v1.765h-4.279v-6.042zm-1.287 4.758v-3.474h-12.5v3.474h1.709v-1.765h3.536v10.725h-1.452v1.989h4.92v-1.989h-1.455v-10.725h3.535v1.765z"/><polygon class="c" points="136.608 26.484 136.608 29.958 134.899 29.958 134.899 28.193 131.363 28.193 131.363 38.918 132.818 38.918 132.818 40.907 127.899 40.907 127.899 38.918 129.353 38.918 129.353 28.193 125.818 28.193 125.818 29.958 124.109 29.958 124.109 26.484 131.363 26.484 134.742 26.484 136.608 26.484"/><path class="f" d="M102.908 51.51c.624-.142 1.468-.322 2.5-.522-.636.433-1.387.977-2.208 1.631z"/><path class="h" d="M125.765 68.067s.175 1.123-1.4 1.6-11.526 3.448-12.661 3.287l-4.016-2.084-.7-2.485 4.264 2.658z"/><path class="h" d="M134.683 67.85s-.126 1.129 1.466 1.542 11.665 2.943 12.792 2.734l3.922-2.257.59-2.514-3.919 2.338z"/><path class="h" d="M102.1 66s1.379 2.759 3.607 1.8l1.591.584-.159 1.167-3.342.424-.9-.53z"/><path class="h" d="M158.567 65.243s-2.254 2.88-4.482 1.925l-.716.462.159 1.167 3.342.424.9-.53z"/><path class="h" d="M123.7 86.918a18.822 18.822 0 0 0 17.425-1.486l-2.971-.2s-6.484 2.566-11.617 1.148z"/><path class="j" d="M131.98 79.326l.566.674c.013.016 1.269 1.512 2.805 3.035a5.053 5.053 0 0 0 3.67 1.525 6.445 6.445 0 0 0 1.5-.186l1.521-.365c1.91-.457 4.074-.975 5.123-1.269.208-.059.439-.112.683-.167 1.4-.323 3.31-.768 4.324-2.8.763-1.525 1.791-3.5 2.554-4.954-.661.3-1.354.635-1.846.894a6.509 6.509 0 0 1-3.037.592c-.764 0-1.514-.064-2.344-.138-1.659-.153-4.466-.483-4.495-.487l-.215-.024-.17-.136c-.025-.018-2.485-1.978-4.473-3.542l-.22-.182c-.209-.178-.209-.178-.334-.178-.638 0-2.491.575-6.551 1.833l-.249.079-.244-.092a18.817 18.817 0 0 0-5.884-1c-.261 0-.522.007-.775.02-.32.016-2.114.869-4.409 4.5l-.149.233-.263.084c-.038.013-3.988 1.288-8.176 2.486l-.272.077-.257-.12c-.027-.011-1.666-.771-3.226-1.488.851 1.256 1.938 2.824 2.9 4.053 1.672 2.153 3.779 4.142 7.819 4.142a14.239 14.239 0 0 0 1.6-.094c4.109-.464 5.168-.652 5.737-.751l.54-.084c.031 0 3.4-.439 4.34-2.557.974-2.177 1.17-2.7 1.178-2.715l.343-.917a.866.866 0 0 1 .106-.307l.007.006a1.678 1.678 0 0 1 .273.32zm-25.594-41.09c-.893.36-1.78.731-2.647 1.139s-1.723.823-2.539 1.3a14.58 14.58 0 0 0-2.113 1.446l-.075.5-.074.713c-.042.478-.059.959-.064 1.44a21.2 21.2 0 0 0 .178 2.878 20.913 20.913 0 0 0 .566 2.822c.129.46.272.913.441 1.35.083.221.175.436.27.645l.147.307.061.116.215.106.428.2.84.388a.557.557 0 0 0 .044-.04l-.792-3.02c.167-.046 1.674-.435 4.269-.929l-.63-.134a13.024 13.024 0 0 1-1.738-.555 8.11 8.11 0 0 1-.819-.4 2.78 2.78 0 0 1-.722-.549c2.851.931 8.742.508 13.98-.031a143.649 143.649 0 0 1 14.416-.825 143.4 143.4 0 0 1 14.417.825c5.241.54 11.133.963 13.983.031a2.778 2.778 0 0 1-.722.549 8.15 8.15 0 0 1-.819.4 13.117 13.117 0 0 1-1.74.555l-.263.059c2.846.527 4.5.957 4.679 1l-.759 2.877.457-.2.428-.2.215-.106.059-.116.149-.307c.1-.21.187-.424.272-.645.167-.437.312-.891.439-1.35a20.59 20.59 0 0 0 .566-2.822 20.978 20.978 0 0 0 .178-2.878c0-.481-.022-.963-.062-1.44l-.076-.713-.076-.5a14.569 14.569 0 0 0-2.113-1.446c-.816-.475-1.669-.9-2.54-1.3s-1.754-.779-2.647-1.139c-.447-.18-.9-.357-1.349-.524s-.906-.339-1.361-.5c.957.158 1.905.376 2.843.617.612.158 1.222.336 1.824.526-4.294-11.239-14.57-18.556-25.789-18.556s-21.494 7.317-25.791 18.55c.6-.189 1.212-.367 1.822-.526.941-.241 1.888-.459 2.846-.617-.458.165-.911.33-1.363.5s-.9.349-1.348.529zm56.572 6.5a19.152 19.152 0 0 1-.092 3.1 19.68 19.68 0 0 1-.574 3.053c-.142.5-.305 1-.5 1.49-.1.246-.2.491-.316.735l-.186.364-.1.182-.123.2-.1.162-.164.084-.476.232-.461.208c-.309.132-.619.257-.93.378l-.59.239-.512 1.947-.455-.112-.028.2a17.3 17.3 0 0 1 2.056 1.208c.762.63.816 1.628.647 3.492a33.179 33.179 0 0 1-.845 4.53c-.761 2.944-1.165 3.29-1.687 3.424a4.573 4.573 0 0 1-1.067.136 12.817 12.817 0 0 1-2.636-.156 28.209 28.209 0 0 1-1.8 4.6l.154-.073c1.319-.693 3.854-1.8 3.961-1.845l2-.87-1.025 1.929c-.024.042-2.223 4.178-3.569 6.878-1.337 2.675-3.845 3.257-5.346 3.6l-.615.151c-1.077.3-3.257.823-5.18 1.286a.642.642 0 0 1-.07.015 22.73 22.73 0 0 1-3.887 1.92 22.089 22.089 0 0 1-15.558.033c-.8.1-1.857.23-3.262.389a16.01 16.01 0 0 1-1.769.1c-4.707 0-7.2-2.39-9.022-4.73-1.947-2.499-4.331-6.215-4.431-6.375l-1.382-2.156 2.337 1.051c1.118.5 4.444 2.043 5.4 2.484l.228-.066a28.6 28.6 0 0 1-3.8-7.677 11.374 11.374 0 0 1-2.912.417 4.012 4.012 0 0 1-.881-.081c-.522-.119-1.117-.622-1.927-3.476a31.431 31.431 0 0 1-.924-4.4c-.2-1.817-.165-2.79.59-3.419a20.471 20.471 0 0 1 2.309-1.352l-.068-.561a57.12 57.12 0 0 0-7.862 5.452l-3.489 3.062 2.481-3.918a38.206 38.206 0 0 1 6.33-7.552l-.252-.1-.461-.208-.475-.232-.164-.084-.1-.162-.123-.2-.1-.182-.184-.364c-.116-.244-.22-.489-.316-.735-.193-.492-.357-.988-.5-1.49a19.86 19.86 0 0 1-.667-6.152c.028-.516.077-1.032.149-1.545.037-.257.076-.515.127-.77s.105-.5.184-.788l.055-.2.143-.112a13.687 13.687 0 0 1 2.585-1.55c.735-.345 1.484-.65 2.239-.928a31.957 31.957 0 0 1 10.5-14.659 27.419 27.419 0 0 1 33.51 0 31.947 31.947 0 0 1 10.5 14.657c.757.279 1.5.582 2.241.93a13.684 13.684 0 0 1 2.584 1.55l.143.112.055.2c.081.285.132.528.183.788s.092.513.127.77c.069.506.121 1.025.146 1.541zm-4.258 17.042c.162-1.793.021-2.178-.161-2.326a13.211 13.211 0 0 0-1.4-.826l-.986 6.907a.493.493 0 0 1-.206.334l-1.411.987c-.112.565-.152.832-.29 1.385a8.69 8.69 0 0 0 2.759.211c.578-.62 1.501-4.474 1.695-6.672zm-1.831-6.262l1.056-4.006c-1.532-.347-4.354-.928-8.2-1.472a32.541 32.541 0 0 1-6.22 3.439 115.534 115.534 0 0 1 13.366 2.039zm-1.661 9.665l1.2-8.4c-.534-.116-1.217-.259-2.034-.415l-1.085 7.6a.5.5 0 0 1-.2.335l-4.071 2.847a.493.493 0 0 1-.336.086l-12.268-1.394a.494.494 0 0 1-.417-.345l-2.21-7.274a11.932 11.932 0 0 0-6.885 0l-2.21 7.274a.493.493 0 0 1-.242.292.47.47 0 0 1-.122.044l-12.267 2.729a.526.526 0 0 1-.109.012.483.483 0 0 1-.281-.089l-4.071-2.849a.5.5 0 0 1-.208-.343l-1.1-8.9-1.234.249-.771.43 1.164 9.427 5.914 4.143 14.92-3.319 2.2-7.256a.493.493 0 0 1 .393-.346 7.915 7.915 0 0 1 2.917 0 .488.488 0 0 1 .393.346l2.259 7.436 15 1.706zm-2.864-1.565l1.062-7.433a125.336 125.336 0 0 0-12.738-1.616 46.493 46.493 0 0 1-9.143 2.184l-.283.02a17.981 17.981 0 0 1 3.073.57.5.5 0 0 1 .335.331l2.2 7.227 11.759 1.336zm.817 4.2l-.5.349-1.341.941-1.453 1.018a.5.5 0 0 1-.339.086l-14.458-1.644-1.052-.12a.493.493 0 0 1-.416-.347l-2.263-7.451a7.569 7.569 0 0 0-1-.078 7.486 7.486 0 0 0-1 .078l-2.2 7.236a.491.491 0 0 1-.364.336l-15.412 3.432a.57.57 0 0 1-.108.011.487.487 0 0 1-.283-.09l-.56-.39-1.677-1.173-.678-.474.156.45a32.094 32.094 0 0 0 4.069 7.781c2.827-.834 5.272-1.609 6.052-1.857 1.593-2.454 3.86-4.889 5.471-4.973.277-.013.566-.022.852-.022a19.034 19.034 0 0 1 2.239.139 2.805 2.805 0 0 1-.8-1.45 6.881 6.881 0 0 0 4.673 1.272 8.271 8.271 0 0 0 4.244-1.847 2.665 2.665 0 0 1-1.148 1.953 15.668 15.668 0 0 1 3.722-.891 1.817 1.817 0 0 1 1.319.539l.18.149c1.687 1.328 3.714 2.939 4.308 3.411.687.081 2.865.329 4.238.455.791.071 1.506.132 2.206.132.226 0 .438-.009.638-.022a35.545 35.545 0 0 0 2.416-5.909c.101-.338.192-.682.272-1.027zm-5.331-18.304h-.011c-1.161-.086-2.322-.165-3.487-.231q-2.424-.138-4.85-.237c-.094.14-.285.415-.559.79a30.668 30.668 0 0 1-4.863 5.226 34.885 34.885 0 0 0 13.414-5.289l.356-.259zm-10.6.329l.37-.475c-1.164.117-2.311.287-3.431.5a52.384 52.384 0 0 0-10.331 3.134c2.089-.1 4.286-.161 6.579-.161 1.387 0 2.735.024 4.047.062a30.8 30.8 0 0 0 2.764-3.061zm1.27 36.223a6.613 6.613 0 0 1-4.224-1.943l-.178-.182a15.7 15.7 0 0 1-1.732.25l-.742.031h-.531c-1.56 2.32-5.024 2.772-5.182 2.793l-.423.066a17.653 17.653 0 0 0 5.846.628 23.323 23.323 0 0 0 7.166-1.643zm-6.174-2.647c.375-.029.751-.077 1.13-.134-.491-.51-.924-.985-1.266-1.369-.167.384-.389.889-.681 1.54h.086c.234 0 .49-.026.732-.038zm-1.19-27.9a16.831 16.831 0 0 0 1.864-1.317c-.847-.015-1.706-.026-2.583-.026-3.6 0-6.957.147-10 .376a47.818 47.818 0 0 0-4.967 2.754l-2.934 1.957 2.015-2.892c.332-.48.685-.935 1.049-1.369-3.384.378-6.2.826-8.307 1.214l1.078 8.74 3.709 2.6 11.775-2.618 2.2-7.261a.5.5 0 0 1 .222-.281.4.4 0 0 1 .112-.05 18.79 18.79 0 0 1 2.6-.52zm1.354-6.667q-1.23-.019-2.46-.022-1.8 0-3.615.039l-2.224 1.054-.031.017a26.169 26.169 0 0 0-6 4.266 61.406 61.406 0 0 1 10.34-4.304c1.275-.388 2.613-.749 3.991-1.052zm-15.547 4.664a26.371 26.371 0 0 1 3.395-2.827 57.891 57.891 0 0 0-11.045 3.824c2.125-.345 4.699-.703 7.651-.999zm.766-3.53c1.357-.38 2.757-.713 4.192-.992q-3.086.113-6.172.287c-1.194.066-2.383.147-3.571.237-.6.046-1.187.093-1.777.158l-.5.057a49.778 49.778 0 0 0-11.581 9.538 66.177 66.177 0 0 1 19.41-9.287zm-10.946 19.229l-.22-.746-1.832-1.282a.494.494 0 0 1-.208-.344l-.893-7.256a15.479 15.479 0 0 0-1.629.961c-.176.145-.31.518-.119 2.247.237 2.133 1.317 6.15 1.9 6.734a9.059 9.059 0 0 0 3.001-.314zm-1.353-18.225c-1.034.2-1.878.38-2.5.522l.294 1.11c.818-.655 1.57-1.198 2.206-1.632z"/></svg>