<svg xmlns="http://www.w3.org/2000/svg" viewBox="0 0 115 115"><defs><style>.a{fill:#fff;}.b{fill:#0078d7;}.c{fill:#01bfdd;}.d{fill:#1c75ba;}.e{fill:#1e76bb;}.f{fill:#01c1de;}.g{fill:#02bcdb;}.h{fill:#04b7d8;}.i{fill:#03bada;}.j{fill:#01c3df;}.k{fill:#05b3d6;}.l{fill:#128abe;}.m{fill:#1f77bb;}.n{fill:#108fc1;}.o{fill:#06b0d4;}.p{fill:#1878b4;}.q{fill:#0f93c3;}.r{fill:#09a7cf;}.s{fill:#0aa3cd;}.t{fill:#1973b1;}.u{fill:#07add2;}.v{fill:#0c9dc9;}.w{fill:#0ba0cb;}.x{fill:#167cb6;}.y{fill:#1386bc;}.z{fill:#0d99c7;}.aa{fill:#1580b8;}.ab{fill:#01c2df;}.ac{fill:#1483ba;}.ad{fill:#0e96c5;}.ae{fill:#1b6dae;}.af{fill:#08aad1;}.ag{fill:#1e65a9;}.ah{fill:#1c69ab;}.ai{fill:#215ba3;}.aj{fill:#1f61a6;}.ak{fill:#03bfdd;}.al{fill:#03bbda;}.am{fill:#2257a1;}.an{fill:#24539f;}.ao{fill:#254f9c;}.ap{fill:#08aed3;}.aq{fill:#2a4797;}.ar{fill:#05b7d8;}.as{fill:#0aa8cf;}.at{fill:#274a9a;}.au{fill:#07b3d6;}.av{fill:#0ca2cc;}.aw{fill:#274e9c;}.ax{fill:#2178bc;}.ay{fill:#138bbf;}.az{fill:#1092c2;}.ba{fill:#0e9cc9;}.bb{fill:#1584bb;}.bc{fill:#2555a0;}.bd{fill:#1d67aa;}.be{fill:#177eb7;}.bf{fill:#1b6eae;}.bg{fill:#1097c6;}.bh{fill:#2061a6;}.bi{fill:#4bd0e6;}.bj{fill:#1d75bb;}.bk{fill:#008ebf;}.bl{fill:#008abc;}.bm{fill:#0084b8;}.bn{fill:#0087ba;}.bo{fill:#0081b6;}.bp{fill:#023d83;}.bq{fill:#024287;}.br{fill:#01458a;}.bs{fill:#015193;}.bt{fill:#01498d;}.bu{fill:#0078b0;}.bv{fill:#007db3;}.bw{fill:#006fa9;}.bx{fill:#006ba7;}.by{fill:#0065a2;}.bz{fill:#0068a5;}.ca{fill:#0074ad;}.cb{fill:#015d9c;}.cc{fill:#01619f;}.cd{fill:#015999;}.ce{fill:#04347b;}.cf{fill:#015596;}.cg{fill:#02377f;}.ch{fill:#014d90;}</style></defs><title>AMP_Spinnaker_115x</title><path class="a" d="M115 115h-115v-115h115z"/><path class="b" d="M0 0v115h115v-115zm113 71.919l-40.081 41.081h-70.919v-111h111z"/><path class="a" d="M103.821 104.151a1.425 1.425 0 0 1-2.731.569h-8.385a3.7 3.7 0 1 1 0-7.4h.333l-.006.015.006-.015a4.562 4.562 0 0 1 8.1-.7 5.654 5.654 0 0 0-1.12.379 3.42 3.42 0 0 0-5.709.322l-.151.294a3.381 3.381 0 0 0-.259.845h-1.194a2.562 2.562 0 1 0 0 5.123h8.385a1.425 1.425 0 0 1 2.731.569zm3.171-4.258a5.132 5.132 0 0 0-9.6 1.157 3.989 3.989 0 0 0-2.88 1.678h6.108a2.277 2.277 0 1 1 0 2.846h-6.794a3.989 3.989 0 0 0 3.95 3.426h9.18a4.554 4.554 0 0 0 .036-9.107z"/><path class="c" d="M42.756 66.534l3.675-2.72a.665.665 0 0 1 .6-.335c3.129 1.419 6.387 2.511 9.576 3.779.552.22 1.193.346 1.464.995a36.778 36.778 0 0 1-6.951 2.332c-2.344-1.2-4.873-1.947-7.289-2.97-.481-.203-1.181-.262-1.075-1.081z"/><path class="d" d="M26.414 76.071a5.122 5.122 0 0 1 3.223 1.043c.307.229.933.395.389 1.032-.377.441-.647.645-1.2.212a3.786 3.786 0 0 0-3.042-.726 1.922 1.922 0 0 0-1.838 1.619 1.844 1.844 0 0 0 1.233 2c.961.474 1.961.871 2.936 1.319 2.1.963 2.977 2.381 2.624 4.2a4.161 4.161 0 0 1-4.16 3.15 6.757 6.757 0 0 1-4.5-1.46c-.49-.372-.477-.664-.071-1.081.327-.336.507-.727 1.064-.211a4.575 4.575 0 0 0 3.945 1.167 2.045 2.045 0 0 0 1.952-1.66 1.935 1.935 0 0 0-1.147-2.274c-1-.494-2.019-.928-3.026-1.4-2.054-.961-2.9-2.357-2.523-4.127a3.97 3.97 0 0 1 4.141-2.803z"/><path class="d" d="M78.231 89.583a1.875 1.875 0 0 1-2.549-1.119c-.468-1-1.167-1.894-1.7-2.869-.342-.623-.545-.5-.966-.056-.869.921-1.6 1.852-1.325 3.233.127.648-.087.941-.847.949-.843.01-.8-.433-.8-1.008q.015-6.281 0-12.562c0-.543-.1-1.022.773-1.031s.892.391.888 1.041c-.021 2.832-.009 5.663.212 8.621l3.275-4.041c.887-1.091.89-1.089 2.531-.827-.889 1.074-1.7 2.132-2.6 3.1a1.064 1.064 0 0 0-.07 1.576c1.088 1.619 2.099 3.286 3.178 4.993z"/><path class="e" d="M54.19 81.078a5.231 5.231 0 0 1 3.15-1.55 2.633 2.633 0 0 1 2.994 2.387 52 52 0 0 1 .175 7.247c.019.794-.623.462-1.015.526-.558.091-.729-.18-.723-.721.022-1.805.025-3.612 0-5.417-.016-1 .013-2.059-1.219-2.469a3.1 3.1 0 0 0-3.054 1.18 1.523 1.523 0 0 0-.237 1.087c-.008 1.844-.031 3.689.011 5.532.016.686-.248.833-.873.831s-.886-.132-.877-.826c.037-2.689.005-5.379.025-8.068 0-.425-.276-1.023.6-1.067.773-.039.915.343.929.953a1.71 1.71 0 0 0 .114.375z"/><path class="f" d="M42.756 66.534c.533.884 1.534.914 2.352 1.251 1.652.681 3.337 1.281 5 1.923a1.636 1.636 0 0 1 1.007.877 35.567 35.567 0 0 1-7.343 1.59c-.357.194-.675 0-.968-.142-1.328-.655-2.764-1.043-4.1-1.662-.426-.2-.987-.276-.981-.936z"/><path class="d" d="M45.041 81.063c.5-.361.941-.722 1.42-1.009 2.329-1.394 4.732-.177 4.859 2.521.1 2.11.01 4.229.063 6.342.018.728-.314.785-.9.793s-.8-.16-.789-.777q.056-2.652 0-5.305c-.022-1.033-.007-2.141-1.29-2.553a3.17 3.17 0 0 0-3.121 1.3 1.576 1.576 0 0 0-.167 1c-.008 1.845-.036 3.692.012 5.536.019.72-.3.777-.888.8-.718.029-.8-.3-.8-.892.024-2.691 0-5.383.021-8.074 0-.388-.262-.936.548-.994.755-.054.948.262.906.914a1.5 1.5 0 0 0 .126.398z"/><path class="g" d="M58.071 68.253c-3.028-1.451-6.245-2.425-9.347-3.691a11.7 11.7 0 0 1-1.811-.96.376.376 0 0 1-.05-.331.5.5 0 0 1 .436-.249c1.523-.116 2.961-.733 4.5-.777 2.866 1.2 5.774 2.283 8.678 3.383.517.2 1.282.291 1.015 1.2a18.754 18.754 0 0 1-3.421 1.425z"/><path class="h" d="M68.923 62.941a19.01 19.01 0 0 1-3.732 2.079c-2.611-1.155-5.311-2.079-7.965-3.124a3.766 3.766 0 0 1-1.518-.756c.294-.99 1.373-.848 1.986-1.38.674-.277 1.289-.684 1.985-.917a.92.92 0 0 1 .514.055 59.553 59.553 0 0 0 6.252 2.573c.884.372 1.988.418 2.478 1.47z"/><path class="i" d="M55.714 61.073l8.755 3.255a1.285 1.285 0 0 1 .722.692 18.865 18.865 0 0 1-3.7 1.807c-.072-.693-.657-.749-1.146-.935q-3.887-1.484-7.768-2.983a5.787 5.787 0 0 1-.785-.451c-.008-.54.458-.555.79-.658.658-.2 1.3-.449 1.936-.709.395-.135.792-.363 1.196-.018z"/><path class="j" d="M37.723 69.435c.639.733 1.6.8 2.418 1.169 1.2.539 2.423 1.049 3.636 1.571a36.417 36.417 0 0 1-7.05.831 41.6 41.6 0 0 1-8.516-.272 47.441 47.441 0 0 0 9.512-3.299z"/><path class="k" d="M68.923 62.941c-1.941-1.207-4.206-1.638-6.242-2.6-.871-.414-2.019-.336-2.579-1.348.057-.7.773-.7 1.132-1.088.567-.245 1.024-.765 1.72-.692 2.5 1.03 5.048 1.951 7.574 2.923.521.2 1.114.333 1.358.946a18.636 18.636 0 0 1-2.963 1.859z"/><path class="l" d="M83.613 41.684v2.077c-.56.45-1.1.135-1.621-.07-3.523-1.391-7.092-2.675-10.615-4.075a.931.931 0 0 1-.293-.231 1.488 1.488 0 0 1-.2-.723 5.408 5.408 0 0 1 .033-1.119c.13-.61.522-.714 1.039-.507 3.713 1.485 7.487 2.81 11.2 4.3a1.438 1.438 0 0 1 .457.348z"/><path class="m" d="M87.39 81.465c.867-1.21 1.7-2.035 3.065-1.922.36.03.9-.013.718.586-.115.38.117 1.015-.757 1a2.661 2.661 0 0 0-2.9 2.929c-.01 1.614-.035 3.228.013 4.84.021.718-.305.8-.9.806-.625.01-.882-.142-.872-.829.036-2.689.005-5.378.024-8.068 0-.428-.269-1.021.608-1.064.779-.038.908.349.911.959 0 .187.042.367.09.763z"/><path class="n" d="M71.4 39.38q5.23 1.973 10.459 3.947a4.048 4.048 0 0 0 1.757.433l-.01 2.077c-.481.322-.893-.015-1.294-.176-3.027-1.222-6.119-2.273-9.14-3.508a3.8 3.8 0 0 0-1.562-.346.486.486 0 0 1-.313-.187 1.856 1.856 0 0 1-.194-.931 1.778 1.778 0 0 1 .297-1.309z"/><path class="o" d="M71.885 61.078c-2.6-1.245-5.37-2.083-8.036-3.173-.359-.147-.655-.369-.993-.532a.292.292 0 0 1-.032-.3c.528-.6 1.287-.915 1.849-1.478a.574.574 0 0 1 .634-.063 6.387 6.387 0 0 0 2.255 1.122c1.881.674 3.722 1.451 5.6 2.129a1.744 1.744 0 0 1 1.039.676 10.622 10.622 0 0 1-2.316 1.619z"/><path class="p" d="M70.953 31.066a3.747 3.747 0 0 1 .692-1.386 5.353 5.353 0 0 1 2.511.722c2.929 1.133 5.9 2.156 8.774 3.432.219.677-.115 1.416.236 2.078-.4.34-.8.123-1.186-.023-3.333-1.254-6.656-2.535-9.98-3.815-.461-.174-1.094-.263-1.047-1.008z"/><path class="q" d="M71.64 41.7c.427-.482.835-.132 1.248.027l10.717 4.115a3.387 3.387 0 0 1-.177 1.617c-.39.327-.8.171-1.193.026-3.406-1.264-6.768-2.647-10.194-3.858a1 1 0 0 1-.546-.4 1.427 1.427 0 0 1 .145-1.527z"/><path class="r" d="M79.5 55.074a7.433 7.433 0 0 1-1.809 1.626 1.172 1.172 0 0 1-1.1.014c-2.508-.966-5.027-1.905-7.535-2.87a1.592 1.592 0 0 1-.915-.659c-.027-.631.534-.87.847-1.276a1.588 1.588 0 0 1 .926-.5 59.167 59.167 0 0 1 6.986 2.516 8.028 8.028 0 0 1 2.6 1.149z"/><path class="s" d="M79.5 55.074c-2.6-.674-5.023-1.85-7.548-2.737-.722-.254-1.45-.491-2.175-.736a.441.441 0 0 1-.1-.288c.086-.447.465-.7.7-1.044.2-.261.37-.568.733-.652a33.692 33.692 0 0 1 4.987 1.763c1.271.435 2.522.942 3.769 1.45.422.172.888.312 1.006.852a5.2 5.2 0 0 1-1.372 1.392z"/><path class="t" d="M82.931 33.835a5.988 5.988 0 0 1-2.6-.765c-2.907-1.1-5.791-2.255-8.683-3.39a6.272 6.272 0 0 1 .92-1.854c2.711 1.026 5.4 2.1 8.119 3.116.6.225 1.207.546 1.837.064.491.894-.024 1.929.407 2.829z"/><path class="u" d="M74.2 59.464q-4.157-1.56-8.312-3.123c-.364-.137-.7-.325-.708-.795.143-.583.741-.752 1.064-1.173a.97.97 0 0 1 .641-.212c2.758 1 5.49 2.065 8.219 3.141.383.151.79.316.933.775a7.653 7.653 0 0 1-1.837 1.387z"/><path class="v" d="M82.929 50.229a4.2 4.2 0 0 1-.75 1.84c-.733.341-1.331-.138-1.948-.363-2.944-1.073-5.836-2.291-8.817-3.267a.636.636 0 0 1-.175-.307 6.554 6.554 0 0 1 .2-1.587.717.717 0 0 1 .2-.294c1.429-.033 2.634.713 3.906 1.182q3.7 1.367 7.384 2.796z"/><path class="w" d="M71.432 48.379c.376-.293.7-.072 1.066.065q4.835 1.826 9.68 3.624a5.211 5.211 0 0 1-1.316 1.613 23.587 23.587 0 0 0-4.215-1.755c-1.873-.762-3.778-1.445-5.669-2.162-.156-.192-.086-.4-.045-.606a1.154 1.154 0 0 1 .499-.779z"/><path class="x" d="M70.953 31.066c1.03 1.071 2.507 1.2 3.78 1.733 2.59 1.092 5.242 2.039 7.872 3.036a2.488 2.488 0 0 0 .562.077l.044.617c.039.993-.207 1.2-1.193.836-1.721-.64-3.442-1.283-5.155-1.947-1.677-.65-3.351-1.308-5.039-1.929a2.689 2.689 0 0 0-1.336-.266c-.363-.047-.435-.333-.512-.618-.035-.225-.1-.455.091-.649.687.094.477-.706.886-.89z"/><path class="y" d="M83.613 41.684c-2.221-.478-4.219-1.573-6.354-2.3-1.846-.626-3.642-1.4-5.452-2.128-.362-.146-.588-.169-.634.292-.773-.32-.48-.96-.46-1.518.472-.944 1.179-.466 1.774-.234 3.074 1.2 6.177 2.323 9.241 3.547a1.576 1.576 0 0 0 1.728-.047 6.743 6.743 0 0 1 .157 2.388z"/><path class="z" d="M82.929 50.229a.814.814 0 0 1-.753.077c-3.5-1.347-7-2.672-10.509-4a.8.8 0 0 1-.276-.685 1.139 1.139 0 0 1 .161-.54 1.044 1.044 0 0 1 1.255-.311c3.423 1.271 6.852 2.525 10.223 3.931a.822.822 0 0 1 .18.143 2.4 2.4 0 0 1-.281 1.385z"/><path class="aa" d="M70.478 33.171c.246-.762.707-.207.991-.1q5.312 1.975 10.6 4.021c.636.245 1.135.39 1.145-.561a6.592 6.592 0 0 1 .219 2.386c-.695.237-1.272-.155-1.865-.381-3.013-1.148-6.03-2.284-9.029-3.467-.726-.286-1.469-.207-2.181-.419a1.329 1.329 0 0 1 .12-1.479z"/><path class="ab" d="M47.167 63.15l-.243.268c-.272.227-.628-.024-.907.162a23.988 23.988 0 0 1-5.531.168 39.356 39.356 0 0 0 6.848-4.085 2.139 2.139 0 0 1 2.55 1.016 4.273 4.273 0 0 1-2.717 2.471z"/><path class="ac" d="M70.539 34.761a.841.841 0 0 1 1.167-.326c3.9 1.511 7.814 2.992 11.723 4.482l.028.382c-.038 1.075-.689.768-1.268.546-3.233-1.238-6.456-2.5-9.7-3.716-.475-.178-.964-.735-1.55-.188a.265.265 0 0 1-.293-.022 1.078 1.078 0 0 1-.169-.273c-.068-.302-.277-.613.062-.885z"/><path class="ad" d="M83.21 48.84c-1.813-.245-3.388-1.186-5.091-1.754-1.779-.592-3.511-1.326-5.252-2.028a1.24 1.24 0 0 0-1.2.089.916.916 0 0 1-.318-.719 1.268 1.268 0 0 1 .319-1.127c2.482.538 4.733 1.725 7.119 2.535a31.486 31.486 0 0 0 4.642 1.619z"/><path class="ae" d="M82.521 31.008c-.053.365-.007.884-.617.664-3.078-1.112-6.167-2.2-9.145-3.568-.088-.041-.13-.182-.194-.277a3.586 3.586 0 0 1 .682-1.405c2.728.806 5.315 1.993 7.988 2.949.342.122.645.475 1.069.228a2.738 2.738 0 0 1 .217 1.409z"/><path class="af" d="M76.038 58.076c-2.445-1.191-5.043-2-7.558-3.016l-1.68-.68c-.113-.753.66-.838.961-1.28.126-.1.256-.182.424-.093a43.552 43.552 0 0 0 6.3 2.558 13.983 13.983 0 0 0 3.2 1.14 6.416 6.416 0 0 1-1.647 1.371z"/><path class="d" d="M40.476 84.616c0-1.38.035-2.762-.015-4.141-.025-.688.319-.717.839-.714s.857.02.849.71q-.051 4.256 0 8.513c.008.68-.322.719-.845.719s-.864-.03-.842-.716c.046-1.456.014-2.914.014-4.371z"/><path class="ag" d="M73.67 25.509a4.68 4.68 0 0 1 .748-1.594c2.521.764 4.924 1.848 7.4 2.738a2.479 2.479 0 0 1 .229 1.377c.15 1.064-.582.677-1 .541-1.712-.555-3.372-1.256-5.048-1.911-.806-.315-1.738-.397-2.329-1.151z"/><path class="ah" d="M73.67 25.509q3.724 1.391 7.448 2.791c.392.148.8.451.928-.273a3.368 3.368 0 0 1 .254 1.573c-.058.215-.06.482-.421.342q-4.148-1.615-8.3-3.228c-.131-.051-.227-.192-.339-.291a1.641 1.641 0 0 1 .43-.914z"/><path class="ai" d="M74.849 22.978a4.7 4.7 0 0 1 .723-1.607c1.385.02 2.517.834 3.787 1.216.582.175 1.12.539 1.772.352a6.919 6.919 0 0 1 .443 2.355.873.873 0 0 1-.968.095c-1.8-.636-3.562-1.355-5.341-2.037a.787.787 0 0 1-.416-.374z"/><path class="aj" d="M74.849 22.978c1.83.485 3.536 1.311 5.31 1.949a3.666 3.666 0 0 0 1.415.368 2.562 2.562 0 0 1 .244 1.358c-.089.064-.205.2-.262.18q-3.475-1.306-6.938-2.646c-.088-.034-.134-.179-.2-.272a1.657 1.657 0 0 1 .431-.937z"/><path class="ak" d="M49.716 60.844c-.5-1-1.508-.947-2.382-1.181l2.974-2.557a2.026 2.026 0 0 1 2.116 1.033c-.034.792-.719 1.134-1.145 1.655-.526.34-.758 1.123-1.563 1.05z"/><path class="al" d="M52.258 58.311c-.32-.935-1.374-.683-1.95-1.205l2.358-2.356a3.566 3.566 0 0 1 1.9.921c.19.432-.137.712-.3 1.04a15.12 15.12 0 0 1-1.184 1.256c-.246.185-.445.481-.824.344z"/><path class="am" d="M81.131 22.94c-.059.463-.3.559-.718.389-1.611-.658-3.227-1.306-4.841-1.957a1.307 1.307 0 0 1 .414-.941c.5-.319.949-.016 1.392.152a21.673 21.673 0 0 0 3.527 1.2 1.891 1.891 0 0 1 .226 1.157z"/><path class="an" d="M80.9 21.787c-.307.474-.673.169-1 .055-1.31-.459-2.613-.939-3.919-1.411a2.285 2.285 0 0 1 .5-1.139c1.553-.016 2.811.869 4.194 1.374a1.827 1.827 0 0 1 .225 1.121z"/><path class="ao" d="M80.684 20.666c-1.544-.011-2.787-.942-4.194-1.374a4.583 4.583 0 0 1 .695-1.617c.957.771 2.253.866 3.219 1.618a2.89 2.89 0 0 1 .28 1.373z"/><path class="ap" d="M55.691 51.309a9.074 9.074 0 0 1 1.409-1.791c.686.213 1.445.309 1.758 1.113a1.366 1.366 0 0 1-.232.809c-.427.426-.607 1.147-1.381 1.166-.6-.337-1.682-.095-1.554-1.297z"/><path class="aq" d="M77.574 16.725c.327-.851.657-1.7.979-2.554.072-.19.174-.407.376-.356a.577.577 0 0 1 .362.4c.065 1.1.7 2.068.694 3.176.12.26-.058.378-.247.354a2.579 2.579 0 0 1-2.164-1.02z"/><path class="ar" d="M54.577 55.768a5 5 0 0 1-1.91-1.018 7.339 7.339 0 0 1 1.4-1.54 2.187 2.187 0 0 1 1.982.818c.1.586-.275.961-.611 1.353-.25.207-.462.509-.861.387z"/><path class="as" d="M58.723 50.7c-.277-.759-1.315-.468-1.627-1.18a9.628 9.628 0 0 1 1.383-1.857c.556.407 1.369.412 1.743 1.108a1.925 1.925 0 0 1-.61 1.327c-.259.251-.388.702-.889.602z"/><path class="at" d="M77.574 16.725c.781.3 1.475.92 2.41.663.446.567.015 1.328.419 1.9-1.114-.458-2.54-.295-3.219-1.618a1.856 1.856 0 0 1 .39-.945z"/><path class="au" d="M55.953 54.162c-.506-.559-1.308-.53-1.883-.951a11.02 11.02 0 0 1 1.621-1.9c.136.957 1.242.6 1.636 1.208l.007.16a2.305 2.305 0 0 1-1.079 1.533.328.328 0 0 1-.302-.05z"/><path class="av" d="M60.105 48.843c-.368-.632-1.47-.257-1.625-1.182a6.605 6.605 0 0 1 1.144-1.627c.725.152 1.52.186 1.815 1.069a1.5 1.5 0 0 1-.234.795 7.625 7.625 0 0 1-.81.977.256.256 0 0 1-.29-.032z"/><path class="aw" d="M67.922 30.774c.243-.752.488-1.5.727-2.257.074-.234.2-.438.459-.421.325.022.234.315.275.523.141.717.292 1.431.44 2.147.133.425.2.9-.4.917-.637.017-1.371.002-1.501-.909z"/><path class="ax" d="M41.3 75.589c.736.021 1.209.377 1.189 1.1a1.015 1.015 0 0 1-1.131 1.024c-.723 0-1.163-.347-1.152-1.1.013-.696.46-.987 1.094-1.024z"/><path class="ay" d="M62.16 42.1a5.418 5.418 0 0 1 .939-1.588c.59.371 1.294.5 1.882.876a.7.7 0 0 1-.048.781c-.211.32-.359.679-.594.985a.578.578 0 0 1-.609.186c-.438-.517-1.456-.305-1.57-1.24z"/><path class="az" d="M62.16 42.1c.346.68 1.481.288 1.646 1.213.235.281.059.524-.068.773-.229.315-.411.695-.894.675-.507-.434-1.483-.263-1.582-1.225a4.772 4.772 0 0 1 .898-1.436z"/><path class="ba" d="M61.259 47.226c-.17-.912-1.289-.521-1.635-1.192a4.379 4.379 0 0 1 .925-1.382 4.843 4.843 0 0 1 1.879.649.671.671 0 0 1-.028.784 6.532 6.532 0 0 1-.847 1.172.262.262 0 0 1-.294-.031z"/><path class="bb" d="M64.966 41.456c-.7-.166-1.539-.043-1.867-.941a2.858 2.858 0 0 1 .675-1.182 3.152 3.152 0 0 1 2 .868.929.929 0 0 1-.148.821c-.179.208-.299.505-.66.434z"/><path class="bc" d="M67.922 30.774c.245.4.693.43 1.072.6.669.3.82-.038.828-.606a2.126 2.126 0 0 1 .244 1.189l.163.542c-.117.265-.177.589-.578.564a6.512 6.512 0 0 1-1.544-.4c-.337-.121-.769-.224-.658-.761a2.336 2.336 0 0 1 .473-1.128z"/><path class="bd" d="M66.076 34.911l.39-.878a2.078 2.078 0 0 1 2.323.824 1.433 1.433 0 0 1-.19 1.083c-.172.248-.314.546-.7.467a6.655 6.655 0 0 0-1.341-.638c-.396-.141-.691-.369-.482-.858z"/><path class="be" d="M65.652 40.314c-.518-.534-1.423-.327-1.878-.981a3.53 3.53 0 0 1 .726-1.333c.7.3 1.585.25 2 1.076a1.044 1.044 0 0 1-.194.807c-.177.21-.299.5-.654.431z"/><path class="ai" d="M67.449 31.9c.591.788 1.633.53 2.354 1.015a1.032 1.032 0 0 1-.689 1.452l-1.6-.654c-.347-.137-.764-.291-.5-.826a1.855 1.855 0 0 1 .435-.987z"/><path class="bf" d="M66.076 34.911c.056.636.615.633 1.023.73.447.106.83.187.855.738.246.331.057.557-.186.77a.816.816 0 0 1-.347.085 3.533 3.533 0 0 1-2.066-.878 4.086 4.086 0 0 1 .721-1.445z"/><path class="p" d="M66.343 39.159c-.375-.771-1.514-.32-1.848-1.156a3.179 3.179 0 0 1 .655-1.238c.607.444 1.417.538 1.94 1.127a.7.7 0 0 1 .08.476 1.992 1.992 0 0 1-.533.8.261.261 0 0 1-.294-.009z"/><path class="bg" d="M62.438 45.384a2.868 2.868 0 0 1-1.89-.733c.017-.513.466-.748.714-1.112.326.683 1.339.4 1.617 1.156a.394.394 0 0 1 .094.442.436.436 0 0 1-.535.247z"/><path class="bh" d="M67.018 32.885c.075.63.671.505 1.036.716s.96.072 1.052.695c.158.286.005.5-.162.713a.257.257 0 0 1-.289 0c-.549-.729-1.442-.691-2.189-.979a2.094 2.094 0 0 1 .552-1.145z"/><path class="t" d="M67.04 37.993c-.566-.507-1.628-.251-1.89-1.227l.205-.408 2.159.719c.194.487.1.823-.474.916z"/><path class="bi" d="M46.017 63.579c.262-.281.588-.2.908-.162a.9.9 0 0 1-.012.186l-.482.212c-.061-.215-.269-.169-.414-.236z"/><path class="d" d="M39.409 81.895a3.594 3.594 0 0 0-5.021-2.01 10.041 10.041 0 0 0-1.093.639c-.291.181-.6.35-.623-.187-.028-.783-.586-.545-.995-.554-.653-.015-.445.508-.446.837-.013 4.153.009 8.307-.024 12.46-.006.727.308.786.893.791s.814-.146.793-.771c-.044-1.338-.013-2.678-.013-4.132 3.474 1.686 5.97.681 6.779-2.651a7.216 7.216 0 0 0-.25-4.422zm-1.909 5.284a2.759 2.759 0 0 1-4.37.481 1.16 1.16 0 0 1-.24-.956c-.012-1.112-.006-2.224 0-3.336a2.412 2.412 0 0 1 2.143-2.368 2.35 2.35 0 0 1 2.677 1.3 6.675 6.675 0 0 1 .436 2.45 5.022 5.022 0 0 1-.646 2.429z"/><path class="d" d="M68.9 88.5c.047-1.689.045-3.38.008-5.07-.069-3.186-1.889-4.536-4.955-3.681a15.91 15.91 0 0 0-1.7.687c-.46.188-.673.406-.354.947.289.492.528.51.993.251a6.053 6.053 0 0 1 1.593-.638 2.035 2.035 0 0 1 2.711 1.6c.106.531.057.841-.624.9a10.376 10.376 0 0 0-3.549.909 2.963 2.963 0 0 0-1.687 3.818 3.018 3.018 0 0 0 3.773 1.561 11.181 11.181 0 0 0 2.3-1.2c.068.67.058 1.241.938 1.136.968-.12.546-.799.553-1.22zm-1.645-2.61a2.657 2.657 0 0 1-3.24 2.61 1.328 1.328 0 0 1-1.115-1.02 1.664 1.664 0 0 1 .45-1.686 5.026 5.026 0 0 1 3.509-1.145c.864.018.063.964.401 1.237z"/><path class="bj" d="M83.874 80.325a3.765 3.765 0 0 0-4.233-.352c-2.48 1.215-3.431 4.866-2 7.558a4.91 4.91 0 0 0 6.825 1.7c.428-.243.488-.429.285-.879-.315-.695-.683-.343-1.1-.171-2.306.959-4.427-.026-4.867-2.228-.118-.592-.092-.937.673-.879.841.064 1.691.015 2.537.014h2.654c.36 0 .73.017.744-.483.052-1.622-.152-3.199-1.518-4.28zm-.836 3.65a14.586 14.586 0 0 0-1.716-.013c-.611 0-1.225-.039-1.831.01-.69.057-.865-.181-.686-.839a2.868 2.868 0 0 1 2.811-2.241 2.262 2.262 0 0 1 2.226 2.061c.128.663.084 1.128-.804 1.022z"/><path class="bk" d="M49.716 60.844l1.381-1.16c1.155.55 2.556.576 3.477 1.627-.822.641-1.936.573-2.785 1.147-1.3.27-2.606.53-3.9.816-.273.06-.518.155-.718-.124a20.937 20.937 0 0 0 2.545-2.306z"/><path class="bl" d="M54.575 61.311c-1.087-.7-2.546-.6-3.477-1.627l1.16-1.372.687-.478c1.214.545 2.529.814 3.739 1.371.409.188.873.292 1.126.723-.594.572-1.441.684-2.1 1.146z"/><path class="bm" d="M54.577 55.768l.671-.479c1.694.678 3.418 1.28 5.119 1.94.391.152.912.248.9.859-.227.508-.866.485-1.164.9l-.449.012a1.366 1.366 0 0 1-1.209-.073c-1.13-.467-2.323-.767-3.434-1.279-.431-.2-.978-.315-.923-.982-.002-.387.355-.582.489-.898z"/><path class="bn" d="M54.087 56.668c.287.593.9.644 1.418.836 1.379.511 2.765 1 4.148 1.5a4.769 4.769 0 0 1-1.844.924 40.164 40.164 0 0 0-4.288-1.477.634.634 0 0 1-.576-.616 4.124 4.124 0 0 1 1.142-1.167z"/><path class="bo" d="M61.266 58.087c-1.182-.888-2.64-1.121-3.965-1.671-.724-.3-1.573-.381-2.054-1.128l.7-1.128.226-.014c1.5.982 3.264 1.269 4.9 1.9.659.256 1.436.342 1.8 1.1l-.014.225c-.604.083-.967.692-1.593.716z"/><path class="bp" d="M67.723 37.071l.232-.691.453-.476c.775.177 1.552 1.089 2.323-.008l.211.044c.07.538-.151 1.118.233 1.611l-.007 1.131c-1.342.373-2.345-.424-3.4-1.01a.4.4 0 0 1-.045-.601z"/><path class="bq" d="M67.723 37.071c0 .638.53.687.951.809a9.567 9.567 0 0 0 2.493.8l.028.671c.2.38.008.69-.332.632-1.387-.236-2.816-.42-3.849-1.552l.027-.44a1.455 1.455 0 0 0 .474-.916l.208-.004z"/><path class="br" d="M67.013 38.433c1.153.427 2.308.847 3.457 1.284.4.151.664.119.725-.364a1.778 1.778 0 0 0 .206.027v1.379c-.058.05-.127.129-.186.119a11.928 11.928 0 0 1-4.653-1.737.8.8 0 0 1 .451-.708z"/><path class="bs" d="M64.966 41.456l.452-.456a25.446 25.446 0 0 1 4.677 1.58c.768.267 1.071.106 1.125-.663a.61.61 0 0 1 .206-.253l.214.033.028 1.6-.044 1.151a.964.964 0 0 1-.976.1c-1.745-.443-3.427-1.09-5.157-1.583-.386-.11-.844-.244-.769-.826z"/><path class="bt" d="M71.426 41.663l-.019.249c-.382.326-.8.177-1.205.076-1.117-.282-2.2-.672-3.294-1.031-.475-.156-1.088-.346-.8-1.112l.234-.686.219-.017 4.839 1.618.026.903z"/><path class="bu" d="M57.327 52.517c.54-.231.6-.939 1.145-1.16q3.544 1.178 7.042 2.489a1.145 1.145 0 0 1 .8.758c-.229.494-.764.618-1.134.943l-.45.241a40.9 40.9 0 0 1-6.947-2.173c-.466-.179-.769-.517-.445-1.069z"/><path class="bv" d="M57.339 52.544c-.077.615.352.767.814.919 1.855.609 3.708 1.222 5.556 1.854.352.12.765.134 1.022.469a4.963 4.963 0 0 1-1.861 1.362 43.22 43.22 0 0 0-5.562-2.048c-.491-.185-1.073-.253-1.129-.95z"/><path class="bw" d="M60.105 48.843l.216-.008c.371-.282.744-.112 1.092.027 2.286.908 4.591 1.766 6.906 2.6.324.116.662.231.785.612a2.6 2.6 0 0 1-.921.936l-.253.216c-.331.253-.658.1-.97-.028-2.153-.876-4.385-1.522-6.574-2.293-.435-.153-1.012-.215-.973-.905z"/><path class="bx" d="M69.1 52.07l-8.783-3.235a1.306 1.306 0 0 1 .689-.943c2.706.835 5.312 1.951 7.993 2.858a1.068 1.068 0 0 1 .778.622l-.007.228z"/><path class="by" d="M61.473 47.218a2.3 2.3 0 0 1 .711-1.144 12.335 12.335 0 0 1 2.958.832c1.62.56 3.211 1.2 4.849 1.718a2.085 2.085 0 0 1 1.166.673l-.178.467-.492.689a.558.558 0 0 1-.642.041c-2.372-1.067-4.917-1.655-7.316-2.645-.385-.158-.819-.228-1.056-.631z"/><path class="bz" d="M61.473 47.218c2.993 1.111 6.1 1.9 9.013 3.235l-.7.919c-2.545-.933-5.093-1.858-7.631-2.809-.409-.153-.941-.143-1.139-.672l.248-.666z"/><path class="ca" d="M59.412 50c.133.321.418.4.718.505 2.6.9 5.2 1.812 7.8 2.722-.219.541-.94.591-1.132 1.157a.531.531 0 0 0-.482.223 25.088 25.088 0 0 0-4.125-1.643 11.681 11.681 0 0 1-3.718-1.6l.251-.659z"/><path class="cb" d="M62.864 45.134l.015-.439.687-.7c2.653.954 5.344 1.791 8.06 2.545a3.747 3.747 0 0 1-.223 1.611c-.389.331-.8.169-1.193.031-2.234-.788-4.441-1.65-6.69-2.4-.295-.098-.707-.162-.656-.648z"/><path class="cc" d="M62.864 45.134a87.979 87.979 0 0 0 8.54 3.013l.029.233-.276.919q-4.208-1.422-8.414-2.851a2.6 2.6 0 0 1-.559-.374l.254-.69z"/><path class="cd" d="M71.626 46.536a1.074 1.074 0 0 1-.976.169c-2.12-.947-4.418-1.36-6.573-2.2-.265-.1-.5-.181-.511-.513l.24-.675.435-.269c1.449.053 2.67.818 3.983 1.291 1.138.409 2.3.764 3.4 1.27l.042.7z"/><path class="ce" d="M68.877 34.991l.23-.694a2.712 2.712 0 0 0 .7-1.383l.426-.416c.051.236.019.5.248.674l.061 1.59.176.921a1.177 1.177 0 0 1-1.841-.692z"/><path class="cf" d="M71.625 45.607c-1.4.08-2.55-.705-3.8-1.126-1.217-.409-2.39-.951-3.582-1.435a1.4 1.4 0 0 1 .48-.9c.128.134.234.348.387.388 2.191.576 4.283 1.487 6.516 1.917l.043.7-.044.456z"/><path class="cg" d="M68.877 34.991a2.366 2.366 0 0 0 1.839.691.691.691 0 0 1 .015.214c.106 1.335-.718.834-1.383.723a1.25 1.25 0 0 1-.94-.715l.248-.891.221-.022z"/><path class="ch" d="M66.109 39.845a.794.794 0 0 0 .7.788 40.777 40.777 0 0 0 4.6 1.279c.006 1.512.01 1.5-1.392.923a35.454 35.454 0 0 1-4.599-1.835l.234-.685z"/></svg>