<svg xmlns="http://www.w3.org/2000/svg" viewBox="0 0 255 115"><defs><style>.a{fill:#fff;}.b{fill:#0078d7;}.c{fill:#d33833;}.d{fill:#ef3d3a;}.e{fill:#231f20;}.f{fill:#f0d6b7;}.g{fill:#335061;}.h{fill:#6d6b6d;}.i{fill:#dcd9d8;}.j{fill:#f7e4cd;}.k{fill:#49728b;}.l{fill:#81b0c4;}.m{fill:#1d1919;}</style></defs><title>AMP_Jenkins_255x115</title><path class="a" d="M255 115h-255v-115h255z"/><path class="b" d="M0 0v115h255v-115zm253 53l-60 60h-191v-111h251z"/><path class="a" d="M240.862 99.12a1.785 1.785 0 0 1-3.42.713h-10.5a4.634 4.634 0 1 1 0-9.268h.417l-.007.019.007-.019a5.713 5.713 0 0 1 10.139-.879 7.081 7.081 0 0 0-1.4.475 4.283 4.283 0 0 0-7.151.4l-.19.369a4.235 4.235 0 0 0-.325 1.058h-1.492a3.208 3.208 0 1 0 0 6.417h10.5a1.785 1.785 0 0 1 3.42.713zm3.972-5.333a6.428 6.428 0 0 0-12.026 1.449 5 5 0 0 0-3.608 2.1h7.65a2.852 2.852 0 1 1 0 3.565h-8.506a5 5 0 0 0 4.948 4.291h11.5a5.7 5.7 0 0 0 .045-11.406z"/><path class="c" d="M158.613 55.892c0 17.576-13.93 31.823-31.113 31.823s-31.112-14.247-31.112-31.823 13.93-31.824 31.112-31.824 31.113 14.248 31.113 31.824"/><path class="d" d="M97.656 63.774s-2.256-33.187 28.327-34.135l-2.133-3.556-16.593 5.571-4.741 5.452-4.148 7.941-2.368 9.245.711 6.163"/><path class="e" d="M106.191 34.183a31.126 31.126 0 0 0-8.837 21.828 31.123 31.123 0 0 0 8.837 21.826 29.7 29.7 0 0 0 21.309 9.03 29.7 29.7 0 0 0 21.309-9.03 31.125 31.125 0 0 0 8.837-21.826 31.128 31.128 0 0 0-8.837-21.828 29.706 29.706 0 0 0-21.309-9.03 29.707 29.707 0 0 0-21.309 9.03zm-1.382 45.006a33.06 33.06 0 0 1-9.388-23.177 33.061 33.061 0 0 1 9.388-23.178 31.636 31.636 0 0 1 22.691-9.613 31.634 31.634 0 0 1 22.691 9.612 33.057 33.057 0 0 1 9.388 23.178 33.055 33.055 0 0 1-9.388 23.177 31.64 31.64 0 0 1-22.691 9.612 31.642 31.642 0 0 1-22.691-9.612"/><path class="f" d="M140.6 56.068l-4.741.711-6.4.711-4.149.118-4.03-.118-3.082-.948-2.726-2.963-2.133-6.045-.474-1.3-2.845-.948-1.659-2.726-1.185-3.911 1.3-3.437 3.081-1.067 2.489 1.185 1.185 2.607 1.422-.237.474-.592-.474-2.726-.119-3.437.711-4.741-.028-2.708 2.161-3.455 3.793-2.726 6.638-2.845 7.348 1.067 6.4 4.622 2.963 4.741 1.9 3.437.474 8.534-1.422 7.349-2.607 6.519-2.489 3.437"/><path class="g" d="M136.567 76.573l-16.949.711v2.845l1.422 9.956-.711.83-11.852-4.03-.83-1.422-1.185-13.393-2.726-8.06-.593-1.9 9.482-6.519 2.963-1.185 2.607 3.2 2.252 2.015 2.608.83 1.185.356 1.422 6.163 1.067 1.3 2.726-.948-1.896 3.678 10.312 4.859-1.3.711"/><path class="h" d="M108.477 35.208l3.081-1.067 2.489 1.185 1.185 2.607 1.422-.237.356-1.422-.711-2.726.711-6.519-.593-3.556 2.133-2.489 4.622-3.674-1.3-1.778-6.519 3.2-2.726 2.133-1.541 3.319-2.371 3.2-.715 3.794.474 4.03"/><path class="i" d="M113.336 24.067s1.778-4.385 8.889-6.519l.356-1.541-7.7 2.963-2.963 2.963-1.3 2.371 2.726-.237"/><path class="i" d="M109.78 34.379s-2.489-8.3 6.993-9.482l-.356-1.422-6.517 1.54-1.9 6.163.474 4.03 1.3-.83"/><path class="j" d="M113.573 45.4l1.552-1.5a1 1 0 0 1 .819.911c.118.83.474 8.3 5.57 12.327.465.368-3.793-.593-3.793-.593l-3.793-5.926"/><path class="j" d="M135.382 43.149s.276-3.593 1.244-3.316a1.332 1.332 0 0 1 .968 1.244s-2.35 1.52-2.211 2.073"/><path class="j" d="M145.219 29.993s-1.954.412-2.133 2.133 2.133.356 2.489.237"/><path class="j" d="M130.878 30.112s-2.608.356-2.608 2.015 2.963 1.541 3.793.83"/><path class="j" d="M114.758 37.816s-4.5-2.726-4.978-.118-1.541 4.5.711 7.23l-1.541-.474-1.422-3.674-.474-3.556 2.726-2.845 3.082.237 1.778 1.422.118 1.778"/><path class="j" d="M116.892 30.349s2.015-10.43 12.208-12.449c8.392-1.659 12.8.356 14.46 2.252 0 0-7.467-8.889-14.579-6.163s-12.326 7.7-12.208 10.9a52.087 52.087 0 0 1 .118 5.452"/><path class="j" d="M144.39 21.341s-3.437-.118-3.556 2.963a2.356 2.356 0 0 0 .237.948s2.727-3.082 4.386-1.422"/><path class="j" d="M129.339 25.573s-.592-4.73-4.625-1.98c-2.607 1.778-2.37 4.267-1.9 4.741s.345 1.429.706.774.242-2.789 1.546-3.381 3.441-1.255 4.269-.153"/><path class="k" d="M118.2 57.609l-11.141 4.978s4.622 18.371 2.252 24.061l-1.659-.592-.118-6.993-3.081-13.275-1.3-3.674 11.615-7.822 3.437 3.318"/><path class="k" d="M119.341 67.77l1.581 1.929v7.111h-1.9s-.237-4.978-.237-5.571l.237-2.726"/><path class="k" d="M119.381 77.877l-5.334.237 1.541 1.067 3.793.593"/><path class="g" d="M137.634 76.692l4.385-.118 1.067 10.9-4.5.592-.948-11.378"/><path class="g" d="M138.819 76.692l6.637-.356s2.726-6.874 2.726-7.23l2.371-9.956-5.334-5.57-1.067-.948-2.845 2.845v11.023l-2.489 10.193"/><path class="k" d="M141.782 75.862l-4.148.83.592 3.319c1.541.711 4.148-1.185 4.148-1.185"/><path class="k" d="M141.9 55.121l8.3 6.163.237-2.845-6.282-5.808-2.255 2.49"/><path class="a" d="M123.494 100.042l-2.454-9.957-1.22-7.347-.2-5.453 11.106-.591h6.91l-.628 12.446 1.067 9.6-.118 1.778-9.008.711-5.452-1.185"/><path class="i" d="M136.093 76.573s-.592 12.327 1.185 21.1a22.643 22.643 0 0 1-8.771 2.845l9.956-.356 1.185-.711-1.422-19.438-.356-4.149"/><path class="a" d="M143.288 86.53l4.622-1.3 8.771-.474 1.3-4.03-2.371-6.993-2.726-.356-3.784 1.182-3.639 1.777-1.932-.354-1.505.592"/><path class="i" d="M143.2 84.159s3.081-1.422 3.556-1.3l-1.3-6.519 1.544-.596s1.067 6.163 1.067 6.874c0 0 6.637.356 7.23.356a10.765 10.765 0 0 0 1.063-5.574l1.3 3.793.118 2.133-1.9 2.845-2.133.474-3.556-.118-1.185-1.541-4.148.592-1.3.474"/><path class="a" d="M138.547 75.745l-2.607-6.638-2.727-3.907s.592-1.659 1.422-1.659h2.726l2.607.948-.237 4.385-1.185 6.875"/><path class="i" d="M139.056 73.491s-3.319-6.4-3.319-7.348c0 0 .592-1.422 1.422-1.067l2.608 1.3v-2.248l-4.03-.83-2.726.356 4.622 10.9.948.119"/><path class="a" d="M124.561 57.848l-3.283-.357-3.082-.948v1.067l1.504 1.66 4.741 2.133"/><path class="i" d="M119.263 58.2s3.674 1.541 4.86 1.185l.118 1.421-3.318-.71-2.015-1.422.356-.474"/><path class="c" d="M143.275 63.94a22.521 22.521 0 0 1-5.419-.747 16.783 16.783 0 0 1 .068-1.762 4.235 4.235 0 0 1 1.857-.389 3.231 3.231 0 0 0-2.063-.233 3.3 3.3 0 0 0-.342-1.087c1.131-.4 3.8-3.049 5.3-2.173.715.417 1.019 2.8 1.075 3.954a4.036 4.036 0 0 1-.478 2.437"/><path class="c" d="M143.412 64.229h-.145a22.879 22.879 0 0 1-5.488-.758l-.245-.069.042-.251a3.781 3.781 0 0 0 .014-.827 2.541 2.541 0 0 1 .066-.98l.03-.085.073-.053a1.506 1.506 0 0 1 .295-.164 2.243 2.243 0 0 0-.267.049l-.34.084-.012-.351a1.726 1.726 0 0 0-.193-.678l-.133-.326-.093-.267.266-.095a7.9 7.9 0 0 0 1.322-.8c1.345-.914 3.017-2.054 4.218-1.353 1.014.592 1.2 3.82 1.216 4.187a4.508 4.508 0 0 1-.537 2.625zm-5.246-1.246a22.561 22.561 0 0 0 4.961.668 4.14 4.14 0 0 0 .342-2.135c-.076-1.572-.454-3.442-.934-3.722-.893-.525-2.463.551-3.612 1.331a12.022 12.022 0 0 1-1.18.744l.018.041a2.837 2.837 0 0 1 .2.564 3.593 3.593 0 0 1 1.944.311l.876.43-.969.108-.411.039a3.354 3.354 0 0 0-1.233.25 2.7 2.7 0 0 0-.012.674 5.446 5.446 0 0 1 .01.697z"/><path class="c" d="M133.658 60.652l-.018.459c-.628.412-1.642.407-2.331.754a6.056 6.056 0 0 1 2.507.634l-.045 1.15a40.929 40.929 0 0 1-3.558 2.7c-.641.349-2.889 1.249-3.571 1.09-.386-.09-.42-.568-.575-1.019a14.583 14.583 0 0 1-1.151-3.958c-.084-1.837-.269-4.915 1.71-4.537a17.684 17.684 0 0 1 4.691 1.716 4.838 4.838 0 0 0 2.339 1.012"/><path class="c" d="M126.825 67.741a1.1 1.1 0 0 1-.247-.024c-.466-.109-.588-.544-.7-.928l-.083-.277c-.077-.226-.177-.482-.287-.763a10.68 10.68 0 0 1-.879-3.274l-.005-.12c-.071-1.522-.167-3.608.767-4.417a1.438 1.438 0 0 1 1.287-.292 17.991 17.991 0 0 1 4.773 1.745c.2.11.379.226.554.34a3.165 3.165 0 0 0 1.67.639l.272.021-.033.879-.123.08a3.478 3.478 0 0 1-1.142.421 6.253 6.253 0 0 1 1.29.476l.165.082-.058 1.477-.118.08a16.993 16.993 0 0 0-1.35 1.072 13.472 13.472 0 0 1-2.232 1.644 11.313 11.313 0 0 1-3.521 1.139zm-.514-9.563a.8.8 0 0 0-.543.189c-.725.628-.632 2.634-.571 3.961l.005.121a10.265 10.265 0 0 0 .841 3.093l.3.786.092.308c.094.336.152.5.277.526a9.5 9.5 0 0 0 3.371-1.062 12.957 12.957 0 0 0 2.136-1.577c.434-.368.845-.718 1.279-1.025l.032-.821a5.766 5.766 0 0 0-2.229-.526l-1.09-.048.975-.49a4.924 4.924 0 0 1 1.147-.352 4.342 4.342 0 0 0 1.034-.314v-.039a3.8 3.8 0 0 1-1.664-.7c-.164-.106-.33-.215-.517-.316a17.347 17.347 0 0 0-4.607-1.687 1.435 1.435 0 0 0-.268-.027z"/><path class="c" d="M134.8 62.844a6.785 6.785 0 0 1-.3-2.159c2.669-1.779 3.17 3.056.3 2.159"/><path class="c" d="M135.475 63.243a2.548 2.548 0 0 1-.759-.127l-.166-.052-.03-.171c-.055-.313-.113-.555-.163-.767a3.94 3.94 0 0 1-.14-1.467l.012-.136.113-.075c1.2-.8 1.92-.324 2.176-.085a1.83 1.83 0 0 1 .271 2.154 1.463 1.463 0 0 1-1.314.726zm-.427-.625a1.038 1.038 0 0 0 1.251-.387 1.268 1.268 0 0 0-.171-1.453c-.314-.3-.792-.269-1.354.07a3.469 3.469 0 0 0 .137 1.152l.137.618z"/><path class="d" d="M138.665 63.655s-.83-1.185-.237-1.541 1.185 0 1.541-.592 0-.948.118-1.659.711-.83 1.3-.948 2.252-.356 2.489.237l-.711-2.133-1.422-.474-4.5 2.607-.237 1.3v2.607"/><path class="d" d="M126.22 67.567q-.214-2.775-.461-5.545c-.251-2.759.663-2.278 3.055-2.278a6.3 6.3 0 0 1 2.384.711c.646 1.32-1.081 1.027.745 2.022 1.541.84 4.263-.51 3.641-2.378-.348-.415-1.816-.129-2.341-.4l-2.778-1.44c-1.178-.611-3.9-1.5-5.157-.648-3.183 2.164.2 7.572 1.336 9.83"/><path class="e" d="M129.339 25.573c-3.23-.752-4.836 1.352-5.815 3.534-.874-.212-.526-1.4-.306-2.007.578-1.59 2.908-3.707 4.812-3.42.819.123 1.928.873 1.308 1.892"/><path class="e" d="M145.079 29.252l.153.006a33.405 33.405 0 0 0 2.283 4.462c-.617 1.437-4.672 2.708-4.609.128.877-.383 2.391-.078 3.168-.568a8.8 8.8 0 0 1-.995-4.028"/><path class="e" d="M130.993 29.291c.693 1.27.918 2.6 1.9 3.564.443.432 1.306.959.878 2.16a2.739 2.739 0 0 1-1.251 1.039c-1.539.454-5.126.094-3.911-1.825 1.273.059 2.984.827 3.936-.1-.731-1.168-2.033-3.479-1.554-4.84"/><path class="e" d="M144.5 42.2c-2.318 1.489-4.9 3.108-8.7 2.732a2.575 2.575 0 0 1-.332-3.312c.41.705.153 2 1.3 2.2 2.155.369 4.663-1.318 6.213-1.908.961-1.62-.083-2.216-.949-3.259-1.773-2.137-4.15-4.785-4.064-7.984.716-.519.778.793.881 1.032a29.234 29.234 0 0 0 4.955 6.79c.417.457 1.1.895 1.181 1.2.22.878-.574 1.93-.481 2.514"/><path class="e" d="M113.947 40.629c-.726-.415-.9-2.241-1.752-2.293-1.219-.074-1 2.369-.992 3.8-.839-.762-.986-3.107-.37-4.311-.7-.345-1.016.38-1.406.636.5-3.638 5.321-1.687 4.52 2.17"/><path class="e" d="M145.977 43.711c-1.079 2.053-2.6 4.315-5.771 4.381a7.816 7.816 0 0 1 0-2.072c2.42-.233 3.914-1.464 5.767-2.309"/><path class="e" d="M130.81 45.043c2.019 1.062 5.73 1.176 8.474 1.1a9.609 9.609 0 0 1 .149 2.077c-3.528.176-7.7-.7-8.623-3.173"/><path class="e" d="M130.426 47.022c1.4 3.506 6.2 3.1 10.242 3.005a2.164 2.164 0 0 1-1.044 1.187c-1.3.528-4.873.928-6.674-.028-1.142-.607-1.875-1.978-2.5-2.782-.3-.388-1.806-1.38-.023-1.382"/><path class="l" d="M144.332 66.359a71.481 71.481 0 0 1-5.15 8.164 39.322 39.322 0 0 0 1.287-9.464 2.982 2.982 0 0 1 3.863 1.3"/><path class="e" d="M153.149 76.445c-1.834.367-3.123 2.15-4.913 2.036.984-1.386 2.707-1.971 4.913-2.036"/><path class="e" d="M153.958 79.316a26.88 26.88 0 0 1-4.768.275c.718-1.1 3.484-.718 4.768-.275"/><path class="e" d="M154.477 81.791c-1.68.036-3.769 0-5.366-.131.945-1.015 4.276-.377 5.366.131"/><path class="i" d="M141.171 88.565c.241 2.11 1.078 4.249.973 6.56a6.87 6.87 0 0 1-2.708.586c-.088-1.964-.351-4.967-.272-6.839.612.041 1.515-.437 2.007-.306"/><path class="f" d="M138.462 57.462c-.844.551-1.562 1.238-2.373 1.827a5.225 5.225 0 0 1-4.1-1.156l.159-.148c1.924.857 4.369-.349 6.311-.523"/><path class="l" d="M128.363 70.575c.529-2.29 2.6-3.476 4.48-4.738 1.941 2.463 3.122 5.632 4.422 8.689a45.31 45.31 0 0 1-8.9-3.951"/><path class="e" d="M139.164 88.871c-.079 1.872.184 4.875.272 6.839a6.87 6.87 0 0 0 2.708-.586c.1-2.311-.732-4.45-.973-6.56-.492-.131-1.395.347-2.007.307zm-19.384-10.649a97.877 97.877 0 0 0 4.19 20.572 27.266 27.266 0 0 0 14.952.272c-.785-3.772-.442-8.363-.9-12.388-.346-3.025-.17-6.069-.644-9.155-5.184-1.079-12.511-.253-17.598.699zm18.82-.652c-.044 3.241.145 6.438.393 9.683 1.245-.187 2.089-.312 3.245-.565-.375-3.124-.329-6.639-1.094-9.4a7.711 7.711 0 0 0-2.544.282zm6.313-.522a7.755 7.755 0 0 0-1.843.006c.265 2.642.909 5.557 1.135 8.33a7.716 7.716 0 0 0 2.093-.532c.039-2.434-.213-5.788-1.385-7.8zm9.559 8.734c1.851-.449 3.015-2.716 2.5-5.044-.347-1.565-.966-4.511-1.628-5.511-.489-.74-1.816-1.71-2.875-1.031-1.723 1.1-4.759 1.424-6.015 2.759a44.523 44.523 0 0 1 1.086 7.638c2.153.134 4.8-.592 6.592.179-1.25.4-2.872.408-3.951 1a8.241 8.241 0 0 0 4.3.013zm-17.207-11.256c-1.3-3.057-2.48-6.225-4.422-8.689-1.881 1.261-3.952 2.447-4.48 4.738a45.31 45.31 0 0 0 8.902 3.951zm3.2-9.467a39.322 39.322 0 0 1-1.287 9.464 71.481 71.481 0 0 0 5.15-8.164 2.982 2.982 0 0 0-3.859-1.3zm-3.633-1.291c-.736-.079-1.361.847-2.319.446l-.643.742c2.115 2.549 3.076 6.165 4.71 9.16.876-2.877.776-6.029.969-9.17-1.2.077-1.868-1.088-2.712-1.178zm-2.332-3.083a6.785 6.785 0 0 0 .3 2.159c2.87.897 2.369-3.938-.3-2.159zm-3.182-1.045a17.684 17.684 0 0 0-4.691-1.716c-1.98-.379-1.794 2.7-1.71 4.537a14.583 14.583 0 0 0 1.151 3.958c.154.451.189.93.575 1.019.682.159 2.93-.74 3.571-1.09a40.929 40.929 0 0 0 3.558-2.7l.045-1.15a6.056 6.056 0 0 0-2.507-.634c.689-.347 1.7-.342 2.331-.754l.018-.459a4.838 4.838 0 0 1-2.34-1.01zm-11.809-2.14c-1.026 1.042 2.878 2.462 4.121 2.538-.007-.659.376-1.281.3-1.754-1.478-.263-3.418-.092-4.421-.784zm12.641.489l-.159.148a5.225 5.225 0 0 0 4.1 1.156c.81-.588 1.529-1.276 2.373-1.827-1.945.169-4.39 1.376-6.314.519zm11.6 3.518c-.055-1.157-.359-3.538-1.075-3.954-1.5-.876-4.171 1.77-5.3 2.173a3.3 3.3 0 0 1 .342 1.087 3.231 3.231 0 0 1 2.063.233 4.235 4.235 0 0 0-1.857.389 16.783 16.783 0 0 0-.068 1.762 22.521 22.521 0 0 0 5.419.747 4.036 4.036 0 0 0 .479-2.444zm-25.972-3c-.322-.23-2.5-3.066-2.8-2.948-3.945 1.556-7.633 4.246-10.929 6.79 3.143 6.743 4.411 15 4.635 22.967 3.6 1.684 6.762 4.111 11.647 4.364-.565-4-1.081-7.568-1.4-11.333-1.227-.517-2.988.023-4.137-.16-.01-1.384 1.754-.606 1.9-1.537.111-.7-.971-.757-.618-1.866.9.326 1.37 1.047 2.327 1.318.875-1.914-.012-5.3.114-6.9.024-.3.15-1.664.823-1.425.6.212-.034 3.628.031 5.142.059 1.4-.169 2.745.4 3.621a134.887 134.887 0 0 1 14.624-1.2 35.386 35.386 0 0 1-3.922-1.763c-.793-.447-3.294-1.378-3.523-2.131-.365-1.2.958-1.84 1.185-2.87-2.383 1.3-2.848-1.246-3.411-3.049a23.7 23.7 0 0 1-.927-3.8 41.064 41.064 0 0 1-6.014-3.224zm23.89-2.607c3.287-1.594 3.879 5.956 2.591 8.388.2.725.884 1 1.163 1.655-1.834 3.285-3.871 6.352-5.742 9.6 1.392-.867 3.38-.155 5.019-.8.6-.237 1.032-1.608 1.486-2.7a58.811 58.811 0 0 0 3.139-9.7 12.272 12.272 0 0 0 .41-2.669c-.143-1.045-1.562-1.821-2.283-2.467-1.329-1.194-2.166-2.245-3.553-3.361-.562.83-1.769 1.387-2.228 2.062zm-31.4-29.146c-1.568 1.721-1.241 4.946-1.052 7.246 2.831-1.781 6.588.141 6.552 3.17 1.351-.036.5-1.688.26-2.752-.8-3.476 1.346-7.253.1-10.431a8.59 8.59 0 0 0-5.861 2.765zm11.205-10c-3.545 1-8.089 3.581-9.546 6.766 1.128-.164 1.911-.733 3.024-.8a7.437 7.437 0 0 0 1.455.056c.963-.239 1.776-2.4 2.5-3.2.708-.785 1.56-1.12 2.142-1.835.374-.181.928-.168.949-.73-.161-.182-.332-.311-.527-.26zm18.455.945c-3.68-2.076-9.908-3.638-13.823-1.686-3.158 1.575-7.428 4.18-8.883 7.482 1.36 3.186-.4 6.106-.515 9.341-.06 1.721.81 3.224.877 5.1-.465.768-1.887.862-2.871.81-.331-1.658-.911-3.521-2.618-3.708a3.962 3.962 0 0 0-4.291 3.824c-.13 2.457 1.887 6.528 4.745 6.246 1.1-.109 1.375-1.216 2.579-1.2.652 1.3-1.006 1.71-1.176 2.64a7.475 7.475 0 0 0 .243 1.62 22.113 22.113 0 0 0 2.816 6.555c1.446 2.072 4.287 2.384 7.343 2.587.546-1.176 2.557-1.079 3.867-.772a12.952 12.952 0 0 1-4.24-3.464c-1.39-1.531-2.8-3.173-2.868-5.175 2.626 3.643 4.8 6.825 9.571 8.427 3.613 1.212 7.833-.555 10.609-2.505a12.192 12.192 0 0 0 2.659-3.273c3.064-4.407 4.494-10.7 4.179-16.8-.129-2.515-.124-5.021-.968-6.712-.882-1.769-3.864-3.352-5.61-1.752-.324-1.72 1.452-2.784 3.537-2.165-1.487-1.919-3.048-4.225-5.161-5.417zm6.856 56.738c2.876-1.43 8.248-3.848 10.051.005a32.669 32.669 0 0 1 1.79 5.287c.487 2.068-.528 6.416-2.654 7.11a12.617 12.617 0 0 1-6.331.121 3.449 3.449 0 0 1-.77-1.01 8.735 8.735 0 0 0-4.4.751c.121 1.194-.687 1.386-1.444 1.632-.561 2.226 1.123 5.133.72 7.163-.288 1.446-2.067 1.67-3.375 1.94a11.11 11.11 0 0 0 .146 2.154c-.3 1.1-1.64 1.729-2.911 1.883-4.181.5-10.53.729-14.551-.718-1.122-2.753-2.006-6.1-2.941-9.244-3.922.419-7.095-1.692-10.085-3.076-1.035-.48-2.468-.744-2.855-1.569-.375-.8-.222-2.327-.315-3.772a57.314 57.314 0 0 0-1.414-11.027c-.437-1.7-1.2-3.191-1.732-4.825a34.809 34.809 0 0 1-1.575-4.895c-.332-2.238 1.775-2.362 3.122-3.332 2.083-1.5 3.718-2.329 5.973-3.682.668-.4 2.683-1.415 2.912-1.882.456-.926-.782-2.232-1.113-2.958a8.9 8.9 0 0 1-.871-3.256 6.282 6.282 0 0 1-4.193-2.695c-1.433-2.1-2.427-5.989-1.187-8.947.1-.233.582-.691.654-1.049a12.12 12.12 0 0 0-.291-2.39c-.13-3.844.65-7.156 3.238-8.315 1.05-4.185 4.81-5.576 8.352-7.656a26.265 26.265 0 0 1 4.291-1.829c5.408-1.99 13.7-1.615 18.192 1.779 1.9 1.439 4.945 4.478 6.033 6.679 2.874 5.809 2.67 15.517.66 22.583a22.732 22.732 0 0 1-1.21 3.483c-.382.8-1.567 2.388-1.423 3.091.148.726 2.7 2.667 3.252 3.2.987.952 2.861 2.215 3.013 3.416.163 1.278-.563 3.027-.931 4.26-1.23 4.116-2.431 7.921-3.826 11.591"/><path class="j" d="M127.6 45.939c.156-.208 1.014-.523 2.214.055 0 0-1.422.237-1.3 2.608l-.593-.119s-.613-2.15-.317-2.544"/><path class="m" d="M137.989 66.321a.652.652 0 1 1-.652-.652.652.652 0 0 1 .652.652"/><path class="m" d="M138.641 69.343a.652.652 0 1 1-.652-.652.652.652 0 0 1 .652.652"/></svg>